# xmcd
#
# Track frame offsets: 
#        150
#        11932
#        25287
#        41812
#        62499
#        69018
#        92484
#        109082
#        128426
#        146375
#        162242
#        183840
#        192266
#        204517
#        231934
#        248738
#        282629
#        300279
#        311696
#
# Disc length: 4488 seconds
#
# Revision: 2
# Processed by: cddbd v1.5.2PL0 Copyright (c) Steve Scherf et al.
# Submitted via: ExactAudioCopyFreeDBPlugin 1.0
#
DISCID=fc118613
DTITLE=Meyah Don - Auf neuen Wegen
DYEAR=2006
DGENRE=Hip-Hop
TTITLE0=Vorkocher - eine Sekunde reicht... feat. DJ Fiks
TTITLE1=kaum zu glauben
TTITLE2=Hab keine Angst feat. Gris
TTITLE3=immer der Gärtner
TTITLE4=Drei-Groschen-Gangsta (Skit)
TTITLE5=Regentag feat. Pixie
TTITLE6=Tanz der Vampire feat. Estess
TTITLE7=Über-Dosis
TTITLE8=Egoist
TTITLE9=Klimawandel
TTITLE10=Aus unbestimmten Gründen pt.2 feat. Justus and DJ Fiks
TTITLE11=Musik (Skit) feat. Phase and Wakka
TTITLE12=Wie ein Idiot
TTITLE13=My Lady feat. Pixie and DJ Fiks
TTITLE14=Stell dir vor... feat. Boba Fettt
TTITLE15=Plantman pt.2
TTITLE16=Ich bin und bleibe...
TTITLE17=Nachbrenner feat. DJ Fiks
TTITLE18=Mein Vater
EXTD=
EXTT0=
EXTT1=
EXTT2=
EXTT3=
EXTT4=
EXTT5=
EXTT6=
EXTT7=
EXTT8=
EXTT9=
EXTT10=
EXTT11=
EXTT12=
EXTT13=
EXTT14=
EXTT15=
EXTT16=
EXTT17=
EXTT18=
PLAYORDER=
